<?xml version="1.0" encoding="utf-8"?>
<!-- Generator: Adobe Illustrator 24.0.1, SVG Export Plug-In . SVG Version: 6.00 Build 0)  -->
<svg version="1.1" id="Calque_1" xmlns="http://www.w3.org/2000/svg" xmlns:xlink="http://www.w3.org/1999/xlink" x="0px" y="0px"
	 viewBox="0 0 841.89 595.28" style="enable-background:new 0 0 841.89 595.28;" xml:space="preserve">
<style type="text/css">
	.st0{fill:#BECC63;}
	.st1{font-family:'ComicNeue-Bold';}
	.st2{font-size:30px;}
	.st3{fill:#F7B227;}
	.st4{fill:none;stroke:#000000;stroke-miterlimit:10;}
	.st5{font-family:'ComicNeue-Regular';}
	.st6{font-size:25px;}
	.st7{stroke:#000000;stroke-miterlimit:10;}
	.st8{font-family:'PatrickHand-Regular';}
	.st9{font-size:40px;}
	.st10{fill:none;stroke:#1D1D1C;stroke-miterlimit:10;}
</style>
<path class="st0" d="M486.49,144.55H272c-6.26,0-11.34-5.08-11.34-11.34V84.48c0-6.26,5.08-11.34,11.34-11.34h214.49
	c6.26,0,11.34,5.08,11.34,11.34v48.74C497.83,139.48,492.75,144.55,486.49,144.55z"/>
<text transform="matrix(0.8863 0 0 1 321.7551 117.0237)" class="st1 st2">Mali Tijara</text>
<path class="st0" d="M266.89,170.74H140.25c-3.14,0-5.69,2.55-5.69,5.69v40.24c0,3.14,2.55,5.69,5.69,5.69h126.64
	c3.14,0,5.69-2.55,5.69-5.69v-40.24C272.59,173.28,270.04,170.74,266.89,170.74z"/>
<path class="st0" d="M442.47,170.74H315.83c-3.14,0-5.69,2.55-5.69,5.69v40.24c0,3.14,2.55,5.69,5.69,5.69h126.64
	c3.14,0,5.69-2.55,5.69-5.69v-40.24C448.16,173.28,445.61,170.74,442.47,170.74z"/>
<path class="st0" d="M618.62,170.74H491.98c-3.14,0-5.69,2.55-5.69,5.69v40.24c0,3.14,2.55,5.69,5.69,5.69h126.64
	c3.14,0,5.69-2.55,5.69-5.69v-40.24C624.32,173.28,621.77,170.74,618.62,170.74z"/>
<path class="st0" d="M449.54,262H300.92c-3.4,0-6.15,2.75-6.15,6.15v39.33c0,3.4,2.75,6.15,6.15,6.15h148.61
	c3.4,0,6.15-2.75,6.15-6.15v-39.33C455.68,264.76,452.93,262,449.54,262z"/>
<path class="st0" d="M794.2,262H644.27c-3.41,0-6.17,2.76-6.17,6.17v39.28c0,3.41,2.76,6.17,6.17,6.17H794.2
	c3.41,0,6.17-2.76,6.17-6.17v-39.28C800.37,264.77,797.61,262,794.2,262z"/>
<path class="st0" d="M265,262H35.38c-4.19,0-7.58,3.4-7.58,7.58v36.46c0,4.19,3.4,7.58,7.58,7.58H265c4.19,0,7.58-3.4,7.58-7.58
	v-36.46C272.59,265.4,269.19,262,265,262z"/>
<path class="st0" d="M610.21,262H483.57c-3.14,0-5.69,2.55-5.69,5.69v40.24c0,3.14,2.55,5.69,5.69,5.69h126.64
	c3.14,0,5.69-2.55,5.69-5.69V267.7C615.9,264.55,613.35,262,610.21,262z"/>
<path class="st3" d="M442.56,349.61H315.92c-3.14,0-5.69,2.55-5.69,5.69v40.24c0,3.14,2.55,5.69,5.69,5.69h126.64
	c3.14,0,5.69-2.55,5.69-5.69V355.3C448.26,352.16,445.71,349.61,442.56,349.61z"/>
<path class="st3" d="M442.56,434.62H315.92c-3.14,0-5.69,2.55-5.69,5.69v40.24c0,3.14,2.55,5.69,5.69,5.69h126.64
	c3.14,0,5.69-2.55,5.69-5.69v-40.24C448.26,437.17,445.71,434.62,442.56,434.62z"/>
<path class="st3" d="M631.26,434.62H504.62c-3.14,0-5.69,2.55-5.69,5.69v40.24c0,3.14,2.55,5.69,5.69,5.69h126.64
	c3.15,0,5.69-2.55,5.69-5.69v-40.24C636.96,437.17,634.41,434.62,631.26,434.62z"/>
<path class="st3" d="M631.26,349.61H504.62c-3.14,0-5.69,2.55-5.69,5.69v40.24c0,3.14,2.55,5.69,5.69,5.69h126.64
	c3.15,0,5.69-2.55,5.69-5.69V355.3C636.96,352.16,634.41,349.61,631.26,349.61z"/>
<path class="st3" d="M268.56,349.61H141.92c-3.14,0-5.69,2.55-5.69,5.69v40.24c0,3.14,2.55,5.69,5.69,5.69h126.64
	c3.14,0,5.69-2.55,5.69-5.69V355.3C274.25,352.16,271.7,349.61,268.56,349.61z"/>
<line class="st4" x1="379.24" y1="144.55" x2="379.24" y2="171.66"/>
<text transform="matrix(0.7334 0 0 1 50.9748 294.8276)" class="st5 st6">Produits de Soin Naturels</text>
<text transform="matrix(0.8243 0 0 1 306.3659 294.8271)" class="st5 st6">Plantes Locales</text>
<text transform="matrix(0.8863 0 0 1 516.9557 294.8279)" class="st5 st6">Mièles</text>
<text transform="matrix(0.7628 0 0 1 654.2854 294.8271)" class="st5 st6">Huiles Végétales</text>
<polyline class="st7" points="377.94,222.36 377.94,242.18 377.94,262 "/>
<line class="st4" x1="546.89" y1="242.18" x2="546.89" y2="262"/>
<path class="st4" d="M719.23,262v-16.03c0-2.09-1.5-3.79-3.36-3.79H377.94H153.41c-1.78,0-3.22,1.63-3.22,3.64V262"/>
<path class="st3" d="M789.09,83.03H524.11c-3.15,0-5.69,2.55-5.69,5.69v40.24c0,3.14,2.55,5.69,5.69,5.69h264.98
	c3.14,0,5.69-2.55,5.69-5.69V88.73C794.78,85.58,792.23,83.03,789.09,83.03z"/>
<text transform="matrix(0.8863 0 0 1 533.3199 117.024)" class="st5 st6">Inscription</text>
<text transform="matrix(1 0 0 1 176.4209 204.7269)" class="st5 st6">F.A.Q</text>
<text transform="matrix(1 0 0 1 514.4762 204.7264)" class="st5 st6">Contact</text>
<text transform="matrix(0.7625 0 0 1 327.1101 204.7271)" class="st5 st6">Nos produits</text>
<path class="st0" d="M55.6,531.8H41.94c-3.13,0-5.67-2.54-5.67-5.67v-8.82c0-3.13,2.54-5.67,5.67-5.67H55.6
	c3.13,0,5.67,2.54,5.67,5.67v8.82C61.27,529.26,58.73,531.8,55.6,531.8z"/>
<path class="st3" d="M55.6,569.1H41.94c-3.13,0-5.67-2.54-5.67-5.67v-8.82c0-3.13,2.54-5.67,5.67-5.67H55.6
	c3.13,0,5.67,2.54,5.67,5.67v8.82C61.27,566.56,58.73,569.1,55.6,569.1z"/>
<text transform="matrix(0.8863 0 0 1 173.4532 382.4307)" class="st5 st6">Panier</text>
<text transform="matrix(0.8863 0 0 1 514.326 382.4302)" class="st5 st6">Commande</text>
<text transform="matrix(0.8863 0 0 1 325.672 382.4305)" class="st5 st6">Connection</text>
<text transform="matrix(0.8863 0 0 1 328.2642 466.9363)" class="st5 st6">Inscription</text>
<text transform="matrix(0.8863 0 0 1 522.1473 466.9362)" class="st5 st6">Payement</text>
<path class="st3" d="M808.4,434.62H681.76c-3.14,0-5.69,2.55-5.69,5.69v40.24c0,3.14,2.55,5.69,5.69,5.69H808.4
	c3.15,0,5.69-2.55,5.69-5.69v-40.24C814.1,437.17,811.55,434.62,808.4,434.62z"/>
<text transform="matrix(0.8863 0 0 1 699.5652 466.9359)" class="st5 st6">Validation</text>
<line class="st7" x1="274.25" y1="375.42" x2="310.23" y2="375.42"/>
<path class="st4" d="M722.45,313.63"/>
<line class="st4" x1="546.89" y1="313.63" x2="546.89" y2="334.9"/>
<line class="st4" x1="448.26" y1="196.55" x2="486.29" y2="196.55"/>
<line class="st4" x1="273.23" y1="196.55" x2="311.25" y2="196.55"/>
<path class="st4" d="M715.72,313.63v17.75c0,1.94-1.39,3.51-3.11,3.51H546.89H379.24v-21.27"/>
<line class="st7" x1="567.94" y1="401.23" x2="567.94" y2="434.62"/>
<path class="st4" d="M379.24,334.9H153.02c-1.56,0-2.83-1.43-2.83-3.19v-18.07"/>
<path class="st4" d="M146.09,537.04h-114c-1.57,0-2.83-1.27-2.83-2.83v-24.98c0-1.57,1.27-2.83,2.83-2.83h114
	c1.57,0,2.83,1.27,2.83,2.83v24.98C148.92,535.77,147.66,537.04,146.09,537.04z"/>
<path class="st4" d="M146.09,574.34h-114c-1.57,0-2.83-1.27-2.83-2.83v-24.98c0-1.57,1.27-2.83,2.83-2.83h114
	c1.57,0,2.83,1.27,2.83,2.83v24.98C148.92,573.07,147.66,574.34,146.09,574.34z"/>
<text transform="matrix(0.6771 0 0 1 72.6758 531.7984)" class="st5 st6">Visiteur</text>
<text transform="matrix(0.5847 0 0 1 67.6603 569.097)" class="st5 st6">Utilisateur</text>
<text transform="matrix(0.8863 0 0 1 395.0192 40.0504)" class="st8 st9">Arborescence</text>
<text transform="matrix(0.8863 0 0 1 676.5295 117.0239)" class="st5 st6">Connection</text>
<line class="st4" x1="379.15" y1="401.23" x2="379.24" y2="434.62"/>
<line class="st4" x1="448.26" y1="375.42" x2="497.83" y2="375.42"/>
<line class="st4" x1="205.24" y1="349.61" x2="205.24" y2="334.9"/>
<line class="st4" x1="636.96" y1="460.43" x2="676.24" y2="460.43"/>
<line class="st10" x1="498.93" y1="108.85" x2="518.41" y2="108.85"/>
<path class="st10" d="M794.78,108.85h16.71c1.44,0,2.61,1.17,2.61,2.61v261.68c0,1.26-1.02,2.29-2.29,2.29l-173.72,0"/>
</svg>
