<?xml version="1.0" encoding="utf-8"?>
<!-- Generator: Adobe Illustrator 24.0.1, SVG Export Plug-In . SVG Version: 6.00 Build 0)  -->
<svg version="1.1" id="Calque_1" xmlns="http://www.w3.org/2000/svg" xmlns:xlink="http://www.w3.org/1999/xlink" x="0px" y="0px"
	 viewBox="0 0 40 40" style="enable-background:new 0 0 40 40;" xml:space="preserve">
<style type="text/css">
	.st0{fill:#A588A1;}
</style>
<g>
	<path class="st0" d="M27.58,19.16c0-0.82-0.06-1.63-0.18-2.42c-0.09-0.54-0.2-1.08-0.34-1.6c-1.05-3.88-3.6-7.14-7-9.13
		c-3.43,1.97-6.01,5.24-7.08,9.13c-0.14,0.52-0.26,1.06-0.34,1.6c-0.12,0.77-0.19,1.55-0.19,2.35c-0.02,4.83,2.23,9.14,5.75,11.93
		c0.56,0.44,1.15,0.85,1.77,1.21c0,0,0,0,0,0c0,0,0,0,0,0c0.02,0,0.03-0.01,0.05-0.01c0-0.01,0-0.01,0-0.02
		c0.61-0.36,1.2-0.75,1.76-1.19C25.29,28.26,27.56,23.98,27.58,19.16z M20.42,30.11c-0.15,0.11-0.3,0.22-0.46,0.32
		c-0.12-0.08-0.24-0.17-0.36-0.26c-0.23-0.17-0.46-0.35-0.68-0.53c-1.23-1.02-2.28-2.25-3.09-3.63c-1.22-2.08-1.86-4.47-1.85-6.9
		c0-0.45,0.03-0.89,0.07-1.33c0.06-0.58,0.16-1.16,0.29-1.73c0.31-1.34,0.83-2.63,1.54-3.82c1.04-1.75,2.47-3.26,4.17-4.39
		c1.69,1.14,3.1,2.65,4.13,4.42c0.69,1.18,1.19,2.46,1.5,3.78c0.13,0.57,0.23,1.15,0.28,1.74c0.04,0.46,0.07,0.92,0.06,1.38
		c-0.01,2.43-0.67,4.81-1.9,6.88c-0.8,1.35-1.84,2.55-3.04,3.55C20.87,29.77,20.65,29.94,20.42,30.11z"/>
	<path class="st0" d="M12.68,30.74c-2.34-0.61-4.47-1.85-6.19-3.57c-1.71-1.72-2.93-3.87-3.53-6.21c-0.5-1.98-0.56-4.05-0.16-6.05
		c2-0.39,4.07-0.32,6.05,0.2c0.57,0.15,1.12,0.34,1.67,0.56c0.1,1.05,1.05,1.92,1.05,1.92c0-0.54,0.11-1.31,0.17-1.66
		c0.09-0.43,0.19-0.85,0.31-1.27c-3.29-1.61-7.04-1.96-10.53-1.04C0.16,18.67,1.45,24.29,5.4,28.26c3.56,3.59,8.47,5.02,13.11,4.29
		c-0.62-0.42-1.2-0.88-1.75-1.37C15.39,31.24,14.01,31.09,12.68,30.74z"/>
	<path class="st0" d="M38.49,13.62c-3.48-0.92-7.23-0.57-10.51,1.03c0.12,0.4,0.22,0.81,0.3,1.22c0.05,0.32,0.18,1.15,0.18,1.72
		c0,0,0.95-0.87,1.05-1.92c0.54-0.22,1.09-0.41,1.66-0.55c1.97-0.52,4.05-0.58,6.05-0.2c0.4,2,0.35,4.07-0.16,6.05
		c-0.6,2.34-1.81,4.49-3.53,6.21c-1.71,1.72-3.85,2.96-6.19,3.57c-1.35,0.35-2.75,0.5-4.14,0.43c-0.55,0.49-1.14,0.95-1.76,1.37
		c4.66,0.76,9.6-0.67,13.18-4.28C38.56,24.29,39.85,18.67,38.49,13.62z"/>
</g>
</svg>
