<?xml version="1.0" encoding="utf-8"?>
<!-- Generator: Adobe Illustrator 24.0.1, SVG Export Plug-In . SVG Version: 6.00 Build 0)  -->
<svg version="1.1" id="Calque_1" xmlns="http://www.w3.org/2000/svg" xmlns:xlink="http://www.w3.org/1999/xlink" x="0px" y="0px"
	 viewBox="0 0 200 60" style="enable-background:new 0 0 200 60;" xml:space="preserve">
<style type="text/css">
	.st0{opacity:0.36;}
	.st1{fill:#A588A1;}
</style>
<g>
	<g class="st0">
		<path class="st1" d="M34.76,52.82L20.47,38.53c-5.31-5.31-5.31-13.92,0-19.23L34.76,5l14.29,14.29c5.31,5.31,5.31,13.92,0,19.23
			L34.76,52.82z"/>
	</g>
	<g class="st0">
		<path class="st1" d="M34.76,52.67L34.76,52.67C18.49,44.56,12.73,26.32,21.9,11.93l0,0l0,0C38.17,20.04,43.93,38.28,34.76,52.67
			L34.76,52.67z"/>
	</g>
	<g class="st0">
		<path class="st1" d="M34.76,52.67L34.76,52.67C18.18,47.74,9.63,31.94,15.69,17.38l0,0l0,0C32.27,22.31,40.81,38.11,34.76,52.67
			L34.76,52.67z"/>
	</g>
	<g class="st0">
		<path class="st1" d="M34.76,52.67L34.76,52.67C18.22,50.8,7.44,37.38,10.68,22.7l0,0l0,0C27.23,24.57,38.01,37.99,34.76,52.67
			L34.76,52.67z"/>
	</g>
	<g class="st0">
		<path class="st1" d="M34.58,52.51L34.58,52.51C18.87,53.71,6.47,43.14,6.88,28.92l0,0l0,0C22.59,27.72,34.99,38.29,34.58,52.51
			L34.58,52.51z"/>
	</g>
	<g class="st0">
		<path class="st1" d="M34.72,52.67L34.72,52.67c16.27-8.11,22.03-26.35,12.86-40.74l0,0l0,0C31.31,20.04,25.55,38.28,34.72,52.67
			L34.72,52.67z"/>
	</g>
	<g class="st0">
		<path class="st1" d="M34.72,52.67L34.72,52.67c16.59-4.93,25.13-20.73,19.08-35.29l0,0l0,0C37.21,22.31,28.67,38.11,34.72,52.67
			L34.72,52.67z"/>
	</g>
	<g class="st0">
		<path class="st1" d="M34.72,52.67L34.72,52.67C51.26,50.8,62.04,37.38,58.8,22.7l0,0l0,0C42.25,24.57,31.47,37.99,34.72,52.67
			L34.72,52.67z"/>
	</g>
	<g class="st0">
		<path class="st1" d="M34.9,52.51L34.9,52.51c15.71,1.19,28.11-9.37,27.69-23.59v0l0,0C46.89,27.72,34.49,38.29,34.9,52.51
			L34.9,52.51z"/>
	</g>
	<g class="st0">
		<path class="st1" d="M34.46,52.55L34.46,52.55c10.02,5.46,21.35,2.17,25.31-7.34l0,0l0,0C49.75,39.74,38.42,43.03,34.46,52.55
			L34.46,52.55z"/>
	</g>
	<g class="st0">
		<path class="st1" d="M34.72,52.55L34.72,52.55C24.7,58.01,13.37,54.72,9.41,45.2l0,0l0,0C19.43,39.74,30.76,43.03,34.72,52.55
			L34.72,52.55z"/>
	</g>
</g>
</svg>
